<svg width="24" height="24" viewBox="0 0 24 24" fill="none" xmlns="http://www.w3.org/2000/svg">
<path d="M21 21V11.25M3 11.25V21M1.5 21.75H22.5M13.5 21.75V14.625C13.5 14.3266 13.6185 14.0405 13.8295 13.8295C14.0405 13.6185 14.3266 13.5 14.625 13.5H17.625C17.9234 13.5 18.2095 13.6185 18.4205 13.8295C18.6315 14.0405 18.75 14.3266 18.75 14.625V21.75M17.9283 2.25H6.07172C5.05031 2.25 4.12781 2.8125 3.73125 3.67781L1.70156 8.10938C1.01812 9.60047 2.15297 11.2898 3.91359 11.3438H4.00734C5.47922 11.3438 6.67219 10.1634 6.67219 8.89547C6.67219 10.1611 7.86562 11.3438 9.3375 11.3438C10.8094 11.3438 12 10.2478 12 8.89547C12 10.1611 13.193 11.3438 14.6648 11.3438C16.1367 11.3438 17.3302 10.2478 17.3302 8.89547C17.3302 10.2478 18.5231 11.3438 19.995 11.3438H20.0864C21.847 11.2889 22.9819 9.59953 22.2984 8.10938L20.2687 3.67781C19.8722 2.8125 18.9497 2.25 17.9283 2.25ZM6.375 13.5H10.125C10.4234 13.5 10.7095 13.6185 10.9205 13.8295C11.1315 14.0405 11.25 14.3266 11.25 14.625V18.75H5.25V14.625C5.25 14.3266 5.36853 14.0405 5.5795 13.8295C5.79048 13.6185 6.07663 13.5 6.375 13.5Z" stroke="currentColor" stroke-width="1.5" stroke-linecap="round" stroke-linejoin="round"/>
</svg>
