<svg xmlns="http://www.w3.org/2000/svg" width="25" height="24" viewBox="0 0 25 24" fill="none">
  <path d="M9.77576 19.6154C9.77576 19.8892 9.69486 20.1569 9.5433 20.3846C9.39175 20.6123 9.17633 20.7898 8.9243 20.8946C8.67226 20.9994 8.39493 21.0268 8.12738 20.9734C7.85982 20.92 7.61405 20.7881 7.42116 20.5945C7.22826 20.4008 7.09689 20.1541 7.04367 19.8855C6.99045 19.6169 7.01777 19.3385 7.12216 19.0855C7.22656 18.8325 7.40335 18.6163 7.63017 18.4641C7.85699 18.312 8.12367 18.2308 8.39646 18.2308C8.76228 18.2308 9.1131 18.3766 9.37177 18.6363C9.63044 18.896 9.77576 19.2482 9.77576 19.6154ZM17.3619 18.2308C17.0891 18.2308 16.8224 18.312 16.5956 18.4641C16.3687 18.6163 16.192 18.8325 16.0876 19.0855C15.9832 19.3385 15.9559 19.6169 16.0091 19.8855C16.0623 20.1541 16.1937 20.4008 16.3866 20.5945C16.5795 20.7881 16.8252 20.92 17.0928 20.9734C17.3603 21.0268 17.6377 20.9994 17.8897 20.8946C18.1417 20.7898 18.3571 20.6123 18.5087 20.3846C18.6603 20.1569 18.7412 19.8892 18.7412 19.6154C18.7412 19.2482 18.5958 18.896 18.3372 18.6363C18.0785 18.3766 17.7277 18.2308 17.3619 18.2308ZM21.4696 7.35721L19.0101 15.3802C18.8813 15.8055 18.6194 16.1778 18.2631 16.4419C17.9069 16.7059 17.4754 16.8477 17.0326 16.8462H8.74732C8.29817 16.8445 7.86164 16.6968 7.50312 16.4251C7.1446 16.1535 6.88337 15.7727 6.75855 15.3395L3.63963 4.38462H2.18965C2.00674 4.38462 1.83133 4.31168 1.70199 4.18184C1.57266 4.05201 1.5 3.87592 1.5 3.69231C1.5 3.5087 1.57266 3.33261 1.70199 3.20277C1.83133 3.07294 2.00674 3 2.18965 3H3.63963C3.93912 3.001 4.23023 3.09934 4.46939 3.2803C4.70855 3.46126 4.8829 3.7151 4.96634 4.00385L5.66546 6.46154H20.8101C20.918 6.4615 21.0244 6.48689 21.1208 6.53566C21.2172 6.58443 21.3008 6.65522 21.365 6.74234C21.4291 6.82947 21.472 6.93049 21.4902 7.03728C21.5083 7.14407 21.5013 7.25365 21.4696 7.35721ZM19.8765 7.84615H6.05942L8.0844 14.9596C8.1256 15.1042 8.21257 15.2314 8.33218 15.322C8.45179 15.4125 8.59751 15.4615 8.74732 15.4615H17.0326C17.1801 15.4616 17.3238 15.4141 17.4425 15.3261C17.5612 15.2381 17.6487 15.1142 17.692 14.9726L19.8765 7.84615Z" fill="currentColor"/>
</svg>