<svg width="32" height="32" viewBox="0 0 32 32" fill="none" xmlns="http://www.w3.org/2000/svg">
<rect x="0.5" y="0.5" width="31" height="31" rx="1.5" fill="#A65C5A"/>
<path d="M22.3538 12.854L14.3538 20.854C14.3073 20.9005 14.2522 20.9374 14.1915 20.9626C14.1308 20.9877 14.0657 21.0007 14 21.0007C13.9343 21.0007 13.8693 20.9877 13.8086 20.9626C13.7479 20.9374 13.6927 20.9005 13.6463 20.854L10.1463 17.354C10.0525 17.2602 9.99976 17.133 9.99976 17.0003C9.99976 16.8676 10.0525 16.7403 10.1463 16.6465C10.2401 16.5527 10.3674 16.5 10.5 16.5C10.6327 16.5 10.76 16.5527 10.8538 16.6465L14 19.7934L21.6463 12.1465C21.7401 12.0527 21.8674 12 22 12C22.1327 12 22.26 12.0527 22.3538 12.1465C22.4476 12.2403 22.5003 12.3676 22.5003 12.5003C22.5003 12.633 22.4476 12.7602 22.3538 12.854Z" fill="#FBFBFB"/>
<rect x="0.5" y="0.5" width="31" height="31" rx="1.5" stroke="#CB9593"/>
</svg>
