<svg xmlns="http://www.w3.org/2000/svg" width="49" height="49" viewBox="0 0 49 49" fill="none">
  <path d="M35.1272 19.935L30.6872 24.375L35.1272 28.815C35.7072 29.395 35.7072 30.355 35.1272 30.935C34.8272 31.235 34.4472 31.375 34.0672 31.375C33.6872 31.375 33.3072 31.235 33.0072 30.935L28.5672 26.495L24.1272 30.935C23.8272 31.235 23.4472 31.375 23.0672 31.375C22.6872 31.375 22.3072 31.235 22.0072 30.935C21.7283 30.6527 21.5718 30.2719 21.5718 29.875C21.5718 29.4781 21.7283 29.0973 22.0072 28.815L26.4472 24.375L22.0072 19.935C21.4272 19.355 21.4272 18.395 22.0072 17.815C22.5872 17.235 23.5472 17.235 24.1272 17.815L28.5672 22.255L33.0072 17.815C33.5872 17.235 34.5472 17.235 35.1272 17.815C35.7072 18.395 35.7072 19.355 35.1272 19.935ZM43.3072 14.375V34.375C43.3072 36.295 41.7472 37.875 39.8072 37.875H15.9472C14.7272 37.875 13.6272 37.255 12.9872 36.235L6.40723 25.695C5.90723 24.895 5.90723 23.855 6.40723 23.035L12.9872 12.515C13.6272 11.495 14.7472 10.875 15.9472 10.875H39.8272C41.7472 10.875 43.3272 12.455 43.3272 14.375H43.3072ZM40.3072 14.375C40.3072 14.095 40.0872 13.875 39.8072 13.875H15.9472C15.7672 13.875 15.6072 13.955 15.5272 14.115L9.10723 24.375L15.5272 34.635C15.6272 34.775 15.7872 34.875 15.9472 34.875H39.8272C40.1072 34.875 40.3272 34.655 40.3272 34.375V14.375H40.3072Z" fill="currentColor"/>
</svg>