<svg xmlns="http://www.w3.org/2000/svg" width="160" height="160" viewBox="0 0 160 160" fill="none">
  <path d="M76.7188 10.5939C75.1875 11.3127 73.625 12.9064 73 14.4377C72.6875 15.1252 72.5 16.5314 72.5 17.8127V20.0002H66.875C59.4063 20.0002 60 19.3752 60 27.5002C60 33.3439 60.0313 33.7814 60.625 34.3752C61.25 35.0002 61.6562 35.0002 80 35.0002C98.3438 35.0002 98.75 35.0002 99.375 34.3752C99.9688 33.7814 100 33.3439 100 27.5002C100 19.3752 100.594 20.0002 93.125 20.0002H87.5V17.7189C87.4688 14.2189 85.9375 11.6877 83.0625 10.5002C81.4375 9.81266 78.2812 9.87516 76.7188 10.5939Z" fill="url(#paint0_linear_343_5234)"/>
  <path d="M34.75 28.1252C34.1875 28.4689 33.4688 29.1877 33.125 29.7502C32.5 30.7814 32.5 31.4689 32.5 88.7502C32.5 146.031 32.5 146.719 33.125 147.75C33.4688 148.313 34.1875 149.031 34.75 149.375C35.7812 150 36.4375 150 80 150C123.562 150 124.219 150 125.25 149.375C125.813 149.031 126.531 148.313 126.875 147.75C127.5 146.719 127.5 146.031 127.5 88.7502C127.5 31.4689 127.5 30.7814 126.875 29.7502C126.531 29.1877 125.813 28.4689 125.25 28.1252C124.281 27.5314 123.656 27.5002 114.656 27.5002H105.094L104.938 30.7189C104.719 34.5627 104.125 36.1877 102.281 37.8439C100.031 39.8752 100.531 39.8439 80 39.8439C59.4687 39.8439 59.9688 39.8752 57.7188 37.8439C55.875 36.1877 55.2813 34.5627 55.0625 30.7189L54.9063 27.5002H45.3438C36.3438 27.5002 35.7188 27.5314 34.75 28.1252ZM115 137.5H45V45.0002H115V137.5Z" fill="url(#paint1_linear_343_5234)"/>
  <path d="M60.6875 72.5939C60.2188 73.0627 60 73.7189 60 74.5002C60 75.4689 60.25 75.9377 61.625 77.3752L63.25 79.0939L61.625 80.7189C60.25 82.1252 60 82.5314 60 83.5314C60 85.0314 61.125 86.2502 62.5 86.2502C63.25 86.2502 63.875 85.8752 65.2812 84.5314L67.0625 82.8439L68.625 84.4064C70.6875 86.4689 72.0625 86.7502 73.4375 85.3752C74.9062 83.8752 74.5938 82.4689 72.2188 80.1877L70.9375 78.9377L72.6875 77.1252C74.3438 75.4064 74.4375 75.1877 74.2812 74.1252C74.0312 72.6877 73.0938 71.8752 71.6562 71.8752C70.7812 71.8752 70.25 72.1877 68.875 73.4689L67.1875 75.0939L65.5 73.4689C64.0312 72.1252 63.5937 71.8752 62.5625 71.8752C61.7187 71.8752 61.1562 72.0939 60.6875 72.5939Z" fill="url(#paint2_linear_343_5234)"/>
  <path d="M86.8125 72.3127C86.0937 72.8439 85.625 74.1564 85.8437 75.0314C85.9375 75.4377 86.7187 76.5314 87.5937 77.4064L89.1875 79.0627L87.5 80.7814C86.0312 82.2502 85.8125 82.6564 85.8437 83.6564C85.875 84.5314 86.0937 85.0314 86.75 85.5627C88.0625 86.6877 89.4375 86.3439 91.375 84.4064L92.9375 82.8439L94.7187 84.5314C96.7812 86.5002 97.8437 86.7189 99.25 85.5002C99.9062 84.9377 100.125 84.5002 100.125 83.6252C100.125 82.6564 99.8437 82.2189 98.4375 80.7814L96.75 79.0627L98.3437 77.4064C100.094 75.5939 100.406 74.7814 99.9375 73.4064C99.5625 72.3127 98.8437 71.8752 97.4375 71.8752C96.625 71.8752 96.0937 72.2189 94.6875 73.5939L92.9375 75.3127L91.25 73.5939C89.8125 72.1564 89.375 71.8752 88.4375 71.8752C87.8437 71.8752 87.0937 72.0627 86.8125 72.3127Z" fill="url(#paint3_linear_343_5234)"/>
  <path d="M76.8438 95.9377C74.4375 96.3127 71.4375 97.3439 69.4062 98.5002C65.5938 100.688 61.25 105.781 61.25 108.125C61.25 109.594 62.2812 110.625 63.7812 110.625C65.1875 110.625 65.375 110.469 67.125 107.969C69.6562 104.25 73.4375 101.938 78.0625 101.188C83.2188 100.375 89.3125 103 92.3438 107.344C94.3438 110.188 94.8438 110.625 96.0938 110.625C97.5 110.625 98.75 109.469 98.75 108.219C98.75 106.844 96.9688 104.094 94.5 101.656C92.7188 99.8752 91.625 99.1252 89.3125 98.0314C87.7188 97.2502 85.7812 96.4689 85 96.3127C82.9062 95.8127 78.8438 95.6252 76.8438 95.9377Z" fill="url(#paint4_linear_343_5234)"/>
  <defs>
    <linearGradient id="paint0_linear_343_5234" x1="80" y1="10.0181" x2="80" y2="150" gradientUnits="userSpaceOnUse">
      <stop stop-color="#F4E3E2"/>
      <stop offset="1" stop-color="#CB9593"/>
    </linearGradient>
    <linearGradient id="paint1_linear_343_5234" x1="80" y1="10.0181" x2="80" y2="150" gradientUnits="userSpaceOnUse">
      <stop stop-color="#F4E3E2"/>
      <stop offset="1" stop-color="#CB9593"/>
    </linearGradient>
    <linearGradient id="paint2_linear_343_5234" x1="80" y1="10.0181" x2="80" y2="150" gradientUnits="userSpaceOnUse">
      <stop stop-color="#F4E3E2"/>
      <stop offset="1" stop-color="#CB9593"/>
    </linearGradient>
    <linearGradient id="paint3_linear_343_5234" x1="80" y1="10.0181" x2="80" y2="150" gradientUnits="userSpaceOnUse">
      <stop stop-color="#F4E3E2"/>
      <stop offset="1" stop-color="#CB9593"/>
    </linearGradient>
    <linearGradient id="paint4_linear_343_5234" x1="80" y1="10.0181" x2="80" y2="150" gradientUnits="userSpaceOnUse">
      <stop stop-color="#F4E3E2"/>
      <stop offset="1" stop-color="#CB9593"/>
    </linearGradient>
  </defs>
</svg>