<svg width="36" height="36" viewBox="0 0 36 36" fill="none" xmlns="http://www.w3.org/2000/svg">
<g id="Icon/Gear-outline">
<g id="Vector">
<mask id="path-1-inside-1_286_11929" fill="white">
<path d="M18.0001 11.2501C16.665 11.2501 15.36 11.6459 14.25 12.3876C13.1399 13.1293 12.2748 14.1835 11.7639 15.417C11.253 16.6504 11.1193 18.0076 11.3798 19.3169C11.6402 20.6263 12.2831 21.829 13.2271 22.773C14.1711 23.717 15.3738 24.3599 16.6832 24.6204C17.9926 24.8808 19.3498 24.7471 20.5832 24.2363C21.8166 23.7254 22.8708 22.8602 23.6125 21.7502C24.3542 20.6401 24.7501 19.3351 24.7501 18.0001C24.7482 16.2104 24.0364 14.4946 22.771 13.2291C21.5055 11.9637 19.7897 11.2519 18.0001 11.2501ZM18.0001 22.5001C17.11 22.5001 16.24 22.2361 15.5 21.7417C14.76 21.2472 14.1832 20.5444 13.8426 19.7221C13.502 18.8999 13.4129 17.9951 13.5865 17.1222C13.7602 16.2492 14.1887 15.4474 14.8181 14.8181C15.4474 14.1887 16.2492 13.7602 17.1222 13.5865C17.9951 13.4129 18.8999 13.502 19.7221 13.8426C20.5444 14.1832 21.2472 14.76 21.7417 15.5C22.2361 16.24 22.5001 17.11 22.5001 18.0001C22.5001 19.1935 22.026 20.3381 21.182 21.182C20.3381 22.026 19.1935 22.5001 18.0001 22.5001ZM30.3751 18.3038C30.3807 18.1013 30.3807 17.8988 30.3751 17.6963L32.4732 15.0751C32.5832 14.9374 32.6594 14.7759 32.6955 14.6034C32.7317 14.431 32.7268 14.2525 32.6813 14.0823C32.3374 12.7893 31.8228 11.548 31.1513 10.3908C31.0634 10.2394 30.9413 10.1106 30.7948 10.0147C30.6484 9.91872 30.4815 9.85829 30.3076 9.83819L26.9719 9.46694C26.8332 9.32069 26.6926 9.18006 26.5501 9.04506L26.1563 5.701C26.1361 5.52693 26.0754 5.35999 25.9792 5.2135C25.883 5.06701 25.7539 4.94502 25.6023 4.85725C24.4447 4.18696 23.2034 3.67296 21.9108 3.32866C21.7405 3.28337 21.5619 3.27874 21.3895 3.31514C21.217 3.35153 21.0555 3.42794 20.918 3.53819L18.3038 5.62506C18.1013 5.62506 17.8988 5.62506 17.6963 5.62506L15.0751 3.53116C14.9374 3.42114 14.7759 3.345 14.6034 3.30885C14.431 3.2727 14.2525 3.27755 14.0823 3.32303C12.7896 3.6676 11.5483 4.18209 10.3908 4.85303C10.2394 4.94096 10.1106 5.06302 10.0147 5.2095C9.91872 5.35598 9.85829 5.52284 9.83819 5.69678L9.46694 9.03803C9.32069 9.17772 9.18006 9.31835 9.04506 9.45991L5.701 9.84381C5.52693 9.86407 5.35999 9.92471 5.2135 10.0209C5.06701 10.1171 4.94502 10.2462 4.85725 10.3979C4.18696 11.5555 3.67296 12.7967 3.32866 14.0893C3.28337 14.2596 3.27874 14.4382 3.31514 14.6107C3.35153 14.7831 3.42794 14.9446 3.53819 15.0821L5.62506 17.6963C5.62506 17.8988 5.62506 18.1013 5.62506 18.3038L3.53116 20.9251C3.42114 21.0627 3.345 21.2242 3.30885 21.3967C3.2727 21.5691 3.27755 21.7477 3.32303 21.9179C3.66699 23.2108 4.1815 24.4522 4.85303 25.6093C4.94096 25.7607 5.06302 25.8895 5.2095 25.9855C5.35598 26.0814 5.52284 26.1418 5.69678 26.1619L9.03241 26.5332C9.1721 26.6794 9.31272 26.8201 9.45428 26.9551L9.84381 30.2991C9.86407 30.4732 9.92471 30.6401 10.0209 30.7866C10.1171 30.9331 10.2462 31.0551 10.3979 31.1429C11.5555 31.8132 12.7967 32.3272 14.0893 32.6715C14.2596 32.7168 14.4382 32.7214 14.6107 32.685C14.7831 32.6486 14.9446 32.5722 15.0821 32.4619L17.6963 30.3751C17.8988 30.3807 18.1013 30.3807 18.3038 30.3751L20.9251 32.4732C21.0627 32.5832 21.2242 32.6594 21.3967 32.6955C21.5691 32.7317 21.7477 32.7268 21.9179 32.6813C23.2108 32.3374 24.4522 31.8228 25.6093 31.1513C25.7607 31.0634 25.8895 30.9413 25.9855 30.7948C26.0814 30.6484 26.1418 30.4815 26.1619 30.3076L26.5332 26.9719C26.6794 26.8332 26.8201 26.6926 26.9551 26.5501L30.2991 26.1563C30.4732 26.1361 30.6401 26.0754 30.7866 25.9792C30.9331 25.883 31.0551 25.7539 31.1429 25.6023C31.8132 24.4447 32.3272 23.2034 32.6715 21.9108C32.7168 21.7405 32.7214 21.5619 32.685 21.3895C32.6486 21.217 32.5722 21.0555 32.4619 20.918L30.3751 18.3038ZM28.111 17.3898C28.1349 17.7963 28.1349 18.2039 28.111 18.6104C28.0942 18.8887 28.1814 19.1633 28.3557 19.381L30.3512 21.8743C30.1222 22.602 29.829 23.3079 29.4751 23.9837L26.2969 24.3437C26.0202 24.3744 25.7646 24.5067 25.5798 24.7149C25.3091 25.0193 25.0208 25.3077 24.7163 25.5783C24.5081 25.7632 24.3758 26.0188 24.3451 26.2955L23.9921 29.4708C23.3164 29.825 22.6105 30.1181 21.8827 30.3469L19.388 28.3515C19.1884 28.192 18.9404 28.1052 18.6849 28.1054H18.6174C18.2109 28.1293 17.8033 28.1293 17.3968 28.1054C17.1185 28.0886 16.8438 28.1758 16.6262 28.3501L14.1258 30.3469C13.3982 30.118 12.6923 29.8248 12.0165 29.4708L11.6565 26.2969C11.6257 26.0202 11.4935 25.7646 11.2852 25.5798C10.9808 25.3091 10.6925 25.0208 10.4218 24.7163C10.2369 24.5081 9.98137 24.3758 9.7046 24.3451L6.52928 23.9907C6.17518 23.315 5.88199 22.6091 5.65319 21.8813L7.64866 19.3866C7.8229 19.169 7.9101 18.8943 7.89335 18.616C7.86944 18.2095 7.86944 17.8019 7.89335 17.3954C7.9101 17.1171 7.8229 16.8424 7.64866 16.6248L5.65319 14.1258C5.88216 13.3982 6.17535 12.6923 6.52928 12.0165L9.70319 11.6565C9.97996 11.6257 10.2355 11.4935 10.4204 11.2852C10.6911 10.9808 10.9794 10.6925 11.2838 10.4218C11.4929 10.2368 11.6257 9.98066 11.6565 9.70319L12.0094 6.52928C12.6851 6.17518 13.3911 5.88199 14.1188 5.65319L16.6135 7.64866C16.8312 7.8229 17.1058 7.9101 17.3841 7.89335C17.7907 7.86944 18.1982 7.86944 18.6048 7.89335C18.8831 7.9101 19.1577 7.8229 19.3754 7.64866L21.8743 5.65319C22.602 5.88216 23.3079 6.17535 23.9837 6.52928L24.3437 9.70319C24.3744 9.97996 24.5067 10.2355 24.7149 10.4204C25.0193 10.6911 25.3077 10.9794 25.5783 11.2838C25.7632 11.4921 26.0188 11.6243 26.2955 11.6551L29.4708 12.008C29.825 12.6837 30.1181 13.3897 30.3469 14.1174L28.3515 16.6121C28.1756 16.8316 28.0883 17.1091 28.1068 17.3898H28.111Z"/>
</mask>
<path d="M18.0001 11.2501C16.665 11.2501 15.36 11.6459 14.25 12.3876C13.1399 13.1293 12.2748 14.1835 11.7639 15.417C11.253 16.6504 11.1193 18.0076 11.3798 19.3169C11.6402 20.6263 12.2831 21.829 13.2271 22.773C14.1711 23.717 15.3738 24.3599 16.6832 24.6204C17.9926 24.8808 19.3498 24.7471 20.5832 24.2363C21.8166 23.7254 22.8708 22.8602 23.6125 21.7502C24.3542 20.6401 24.7501 19.3351 24.7501 18.0001C24.7482 16.2104 24.0364 14.4946 22.771 13.2291C21.5055 11.9637 19.7897 11.2519 18.0001 11.2501ZM18.0001 22.5001C17.11 22.5001 16.24 22.2361 15.5 21.7417C14.76 21.2472 14.1832 20.5444 13.8426 19.7221C13.502 18.8999 13.4129 17.9951 13.5865 17.1222C13.7602 16.2492 14.1887 15.4474 14.8181 14.8181C15.4474 14.1887 16.2492 13.7602 17.1222 13.5865C17.9951 13.4129 18.8999 13.502 19.7221 13.8426C20.5444 14.1832 21.2472 14.76 21.7417 15.5C22.2361 16.24 22.5001 17.11 22.5001 18.0001C22.5001 19.1935 22.026 20.3381 21.182 21.182C20.3381 22.026 19.1935 22.5001 18.0001 22.5001ZM30.3751 18.3038C30.3807 18.1013 30.3807 17.8988 30.3751 17.6963L32.4732 15.0751C32.5832 14.9374 32.6594 14.7759 32.6955 14.6034C32.7317 14.431 32.7268 14.2525 32.6813 14.0823C32.3374 12.7893 31.8228 11.548 31.1513 10.3908C31.0634 10.2394 30.9413 10.1106 30.7948 10.0147C30.6484 9.91872 30.4815 9.85829 30.3076 9.83819L26.9719 9.46694C26.8332 9.32069 26.6926 9.18006 26.5501 9.04506L26.1563 5.701C26.1361 5.52693 26.0754 5.35999 25.9792 5.2135C25.883 5.06701 25.7539 4.94502 25.6023 4.85725C24.4447 4.18696 23.2034 3.67296 21.9108 3.32866C21.7405 3.28337 21.5619 3.27874 21.3895 3.31514C21.217 3.35153 21.0555 3.42794 20.918 3.53819L18.3038 5.62506C18.1013 5.62506 17.8988 5.62506 17.6963 5.62506L15.0751 3.53116C14.9374 3.42114 14.7759 3.345 14.6034 3.30885C14.431 3.2727 14.2525 3.27755 14.0823 3.32303C12.7896 3.6676 11.5483 4.18209 10.3908 4.85303C10.2394 4.94096 10.1106 5.06302 10.0147 5.2095C9.91872 5.35598 9.85829 5.52284 9.83819 5.69678L9.46694 9.03803C9.32069 9.17772 9.18006 9.31835 9.04506 9.45991L5.701 9.84381C5.52693 9.86407 5.35999 9.92471 5.2135 10.0209C5.06701 10.1171 4.94502 10.2462 4.85725 10.3979C4.18696 11.5555 3.67296 12.7967 3.32866 14.0893C3.28337 14.2596 3.27874 14.4382 3.31514 14.6107C3.35153 14.7831 3.42794 14.9446 3.53819 15.0821L5.62506 17.6963C5.62506 17.8988 5.62506 18.1013 5.62506 18.3038L3.53116 20.9251C3.42114 21.0627 3.345 21.2242 3.30885 21.3967C3.2727 21.5691 3.27755 21.7477 3.32303 21.9179C3.66699 23.2108 4.1815 24.4522 4.85303 25.6093C4.94096 25.7607 5.06302 25.8895 5.2095 25.9855C5.35598 26.0814 5.52284 26.1418 5.69678 26.1619L9.03241 26.5332C9.1721 26.6794 9.31272 26.8201 9.45428 26.9551L9.84381 30.2991C9.86407 30.4732 9.92471 30.6401 10.0209 30.7866C10.1171 30.9331 10.2462 31.0551 10.3979 31.1429C11.5555 31.8132 12.7967 32.3272 14.0893 32.6715C14.2596 32.7168 14.4382 32.7214 14.6107 32.685C14.7831 32.6486 14.9446 32.5722 15.0821 32.4619L17.6963 30.3751C17.8988 30.3807 18.1013 30.3807 18.3038 30.3751L20.9251 32.4732C21.0627 32.5832 21.2242 32.6594 21.3967 32.6955C21.5691 32.7317 21.7477 32.7268 21.9179 32.6813C23.2108 32.3374 24.4522 31.8228 25.6093 31.1513C25.7607 31.0634 25.8895 30.9413 25.9855 30.7948C26.0814 30.6484 26.1418 30.4815 26.1619 30.3076L26.5332 26.9719C26.6794 26.8332 26.8201 26.6926 26.9551 26.5501L30.2991 26.1563C30.4732 26.1361 30.6401 26.0754 30.7866 25.9792C30.9331 25.883 31.0551 25.7539 31.1429 25.6023C31.8132 24.4447 32.3272 23.2034 32.6715 21.9108C32.7168 21.7405 32.7214 21.5619 32.685 21.3895C32.6486 21.217 32.5722 21.0555 32.4619 20.918L30.3751 18.3038ZM28.111 17.3898C28.1349 17.7963 28.1349 18.2039 28.111 18.6104C28.0942 18.8887 28.1814 19.1633 28.3557 19.381L30.3512 21.8743C30.1222 22.602 29.829 23.3079 29.4751 23.9837L26.2969 24.3437C26.0202 24.3744 25.7646 24.5067 25.5798 24.7149C25.3091 25.0193 25.0208 25.3077 24.7163 25.5783C24.5081 25.7632 24.3758 26.0188 24.3451 26.2955L23.9921 29.4708C23.3164 29.825 22.6105 30.1181 21.8827 30.3469L19.388 28.3515C19.1884 28.192 18.9404 28.1052 18.6849 28.1054H18.6174C18.2109 28.1293 17.8033 28.1293 17.3968 28.1054C17.1185 28.0886 16.8438 28.1758 16.6262 28.3501L14.1258 30.3469C13.3982 30.118 12.6923 29.8248 12.0165 29.4708L11.6565 26.2969C11.6257 26.0202 11.4935 25.7646 11.2852 25.5798C10.9808 25.3091 10.6925 25.0208 10.4218 24.7163C10.2369 24.5081 9.98137 24.3758 9.7046 24.3451L6.52928 23.9907C6.17518 23.315 5.88199 22.6091 5.65319 21.8813L7.64866 19.3866C7.8229 19.169 7.9101 18.8943 7.89335 18.616C7.86944 18.2095 7.86944 17.8019 7.89335 17.3954C7.9101 17.1171 7.8229 16.8424 7.64866 16.6248L5.65319 14.1258C5.88216 13.3982 6.17535 12.6923 6.52928 12.0165L9.70319 11.6565C9.97996 11.6257 10.2355 11.4935 10.4204 11.2852C10.6911 10.9808 10.9794 10.6925 11.2838 10.4218C11.4929 10.2368 11.6257 9.98066 11.6565 9.70319L12.0094 6.52928C12.6851 6.17518 13.3911 5.88199 14.1188 5.65319L16.6135 7.64866C16.8312 7.8229 17.1058 7.9101 17.3841 7.89335C17.7907 7.86944 18.1982 7.86944 18.6048 7.89335C18.8831 7.9101 19.1577 7.8229 19.3754 7.64866L21.8743 5.65319C22.602 5.88216 23.3079 6.17535 23.9837 6.52928L24.3437 9.70319C24.3744 9.97996 24.5067 10.2355 24.7149 10.4204C25.0193 10.6911 25.3077 10.9794 25.5783 11.2838C25.7632 11.4921 26.0188 11.6243 26.2955 11.6551L29.4708 12.008C29.825 12.6837 30.1181 13.3897 30.3469 14.1174L28.3515 16.6121C28.1756 16.8316 28.0883 17.1091 28.1068 17.3898H28.111Z" stroke="currentColor" stroke-width="4" mask="url(#path-1-inside-1_286_11929)"/>
</g>
</g>
</svg>
