<svg width="24" height="24" viewBox="0 0 24 24" fill="none" xmlns="http://www.w3.org/2000/svg">
<path d="M17.1603 19.3195L17.1603 19.3194L17.1584 19.3273C17.023 19.8971 16.5155 20.2976 15.916 20.2976H4.02914C3.17578 20.2976 2.55022 19.4554 2.80947 18.6195C2.8095 18.6194 2.80952 18.6194 2.80954 18.6193L6.61782 6.38945L6.6184 6.38757C6.78522 5.84684 7.28516 5.47803 7.83766 5.47803H18.9646C19.5071 5.47803 19.9561 5.80715 20.1439 6.26242L20.1474 6.27103L20.1512 6.27954C20.2513 6.50622 20.2804 6.77943 20.2081 7.08325C20.2078 7.08417 20.2076 7.08509 20.2074 7.08601L17.1603 19.3195Z" stroke="currentColor" stroke-width="1.5" stroke-miterlimit="10"/>
<mask id="path-2-inside-1_86_11279" fill="white">
<path d="M15.5723 21.0478H19.8964C21.0634 21.0478 21.977 20.0618 21.8956 18.8948L21.0001 6.57373"/>
</mask>
<path d="M15.5723 19.5478C14.7438 19.5478 14.0723 20.2194 14.0723 21.0478C14.0723 21.8763 14.7438 22.5478 15.5723 22.5478V19.5478ZM21.8956 18.8948L23.392 18.7904L23.3917 18.7861L21.8956 18.8948ZM22.4961 6.46499C22.436 5.63874 21.7176 5.01762 20.8913 5.07768C20.0651 5.13773 19.4439 5.85623 19.504 6.68247L22.4961 6.46499ZM15.5723 22.5478H19.8964V19.5478H15.5723V22.5478ZM19.8964 22.5478C21.9403 22.5478 23.5334 20.8174 23.392 18.7904L20.3993 18.9992C20.4207 19.3062 20.1864 19.5478 19.8964 19.5478V22.5478ZM23.3917 18.7861L22.4961 6.46499L19.504 6.68247L20.3996 19.0035L23.3917 18.7861Z" fill="currentColor" mask="url(#path-2-inside-1_86_11279)"/>
<path d="M9.85498 6.91675L10.7958 3.00879" stroke="currentColor" stroke-width="1.5" stroke-miterlimit="10" stroke-linecap="round" stroke-linejoin="round"/>
<path d="M15.916 6.92607L16.7664 3" stroke="currentColor" stroke-width="1.5" stroke-miterlimit="10" stroke-linecap="round" stroke-linejoin="round"/>
<path d="M8.06384 12.0015H15.3009" stroke="currentColor" stroke-width="1.5" stroke-miterlimit="10" stroke-linecap="round" stroke-linejoin="round"/>
<path d="M7.15918 15.6196H14.3962" stroke="currentColor" stroke-width="1.5" stroke-miterlimit="10" stroke-linecap="round" stroke-linejoin="round"/>
</svg>
