<svg width="36" height="36" viewBox="0 0 36 36" fill="none" xmlns="http://www.w3.org/2000/svg">
<path d="M29.1251 15.3125L29.8626 27.675C29.8876 28.0125 29.7251 28.2375 29.6376 28.3375C29.5376 28.45 29.3251 28.625 28.9751 28.625H25.5626L28.2626 15.3125H29.1251ZM30.5001 10.5L30.4876 10.525C30.5126 10.825 30.4876 11.1375 30.4126 11.45L21.2001 28.3625C20.9001 29.625 19.7751 30.5 18.4751 30.5H28.9751C30.5876 30.5 31.8626 29.1375 31.7376 27.525L30.5001 10.5Z" fill="currentColor"/>
<path d="M17.3125 5.79951C17.4375 5.29951 17.125 4.78701 16.625 4.66201C16.125 4.54951 15.6125 4.84951 15.4875 5.34951L14.8625 7.93701H16.7875L17.3125 5.79951Z" fill="currentColor"/>
<path d="M25.5626 5.76293C25.6751 5.25043 25.3501 4.76293 24.8376 4.65043C24.3376 4.53793 23.8376 4.86293 23.7251 5.37543L23.1626 7.96293H25.0876L25.5626 5.76293Z" fill="currentColor"/>
<path d="M30.2749 9.66304C29.8624 8.66304 28.8874 7.95054 27.6874 7.95054H25.0874L24.3874 11.188C24.2874 11.6255 23.8999 11.9255 23.4749 11.9255C23.4124 11.9255 23.3374 11.9255 23.2749 11.9005C22.7749 11.788 22.4499 11.288 22.5499 10.788L23.1624 7.93804H16.7874L15.9999 11.188C15.8999 11.613 15.5124 11.9005 15.0874 11.9005C15.0124 11.9005 14.9374 11.888 14.8624 11.8755C14.3624 11.7505 14.0499 11.2505 14.1749 10.738L14.8499 7.92554H12.3124C11.0874 7.92554 9.99994 8.72554 9.63744 9.90054L4.37494 26.838C3.82494 28.6505 5.16244 30.5005 7.04994 30.5005H23.4749C24.7749 30.5005 25.8999 29.6255 26.1999 28.363L30.4124 11.4505C30.4874 11.138 30.5124 10.8255 30.4874 10.5255C30.4624 10.2255 30.3999 9.92554 30.2749 9.66304ZM21.3749 23.938H11.3749C10.8624 23.938 10.4374 23.513 10.4374 23.0005C10.4374 22.488 10.8624 22.063 11.3749 22.063H21.3749C21.8874 22.063 22.3124 22.488 22.3124 23.0005C22.3124 23.513 21.8874 23.938 21.3749 23.938ZM22.6249 18.938H12.6249C12.1124 18.938 11.6874 18.513 11.6874 18.0005C11.6874 17.488 12.1124 17.063 12.6249 17.063H22.6249C23.1374 17.063 23.5624 17.488 23.5624 18.0005C23.5624 18.513 23.1374 18.938 22.6249 18.938Z" fill="currentColor"/>
</svg>
