<svg width="22" height="22" viewBox="0 0 22 22" fill="none" xmlns="http://www.w3.org/2000/svg">
<circle cx="10.9999" cy="10.9999" r="2.91667" stroke="currentColor" stroke-width="1.5"/>
<path d="M9.62503 2.91675C9.27117 2.91675 8.96546 3.16407 8.89156 3.51012L8.51728 5.26284C8.07279 5.45542 7.65531 5.69799 7.27188 5.98334L5.56863 5.4294C5.2318 5.31985 4.86425 5.46088 4.68715 5.76763L3.31215 8.1492C3.13522 8.45566 3.19656 8.84409 3.45932 9.08111L4.79087 10.2822C4.76388 10.518 4.75003 10.7575 4.75003 11.0001C4.75003 11.2418 4.76378 11.4806 4.79061 11.7156L3.45873 12.9196C3.19644 13.1567 3.13537 13.5448 3.31215 13.851L4.68715 16.2325C4.8641 16.539 5.2312 16.6801 5.56786 16.571L7.27379 16.0182C7.65669 16.303 8.07352 16.5451 8.51728 16.7373L8.89156 18.49C8.96546 18.8361 9.27117 19.0834 9.62503 19.0834H12.375C12.7289 19.0834 13.0346 18.8361 13.1085 18.49L13.4828 16.7373C13.9265 16.5451 14.3434 16.303 14.7263 16.0182L16.4322 16.571C16.7689 16.6801 17.136 16.539 17.3129 16.2325L18.6879 13.851C18.8647 13.5448 18.8036 13.1567 18.5413 12.9196L17.2094 11.7156C17.2363 11.4806 17.25 11.2418 17.25 11.0001C17.25 10.7575 17.2362 10.518 17.2092 10.2822L18.5407 9.08111C18.8035 8.84409 18.8648 8.45565 18.6879 8.1492L17.3129 5.76763C17.1358 5.46088 16.7682 5.31985 16.4314 5.4294L14.7282 5.98334C14.3447 5.69799 13.9273 5.45542 13.4828 5.26284L13.1085 3.51012C13.0346 3.16407 12.7289 2.91675 12.375 2.91675H9.62503Z" stroke="currentColor" stroke-width="1.5" stroke-linejoin="round"/>
</svg>
