<svg width="81" height="80" viewBox="0 0 81 80" fill="none" xmlns="http://www.w3.org/2000/svg">
<path d="M43.8333 70H12.5C11.9696 70 11.4609 69.7893 11.0858 69.4142C10.7107 69.0391 10.5 68.5304 10.5 68V12C10.5 11.4696 10.7107 10.9609 11.0858 10.5858C11.4609 10.2107 11.9696 10 12.5 10H68.5C69.0304 10 69.5391 10.2107 69.9142 10.5858C70.2893 10.9609 70.5 11.4696 70.5 12V43.3333" stroke="#3D3D3D" stroke-width="4" stroke-linecap="round" stroke-linejoin="round"/>
<path d="M10.5 53.3333L33.8333 43.3333L52.1667 51.6667M53.8333 63.3333H63.8333M63.8333 63.3333H73.8333M63.8333 63.3333V53.3333M63.8333 63.3333V73.3333M53.8333 33.3333C52.0652 33.3333 50.3695 32.631 49.1193 31.3807C47.869 30.1305 47.1667 28.4348 47.1667 26.6667C47.1667 24.8986 47.869 23.2029 49.1193 21.9526C50.3695 20.7024 52.0652 20 53.8333 20C55.6014 20 57.2971 20.7024 58.5474 21.9526C59.7976 23.2029 60.5 24.8986 60.5 26.6667C60.5 28.4348 59.7976 30.1305 58.5474 31.3807C57.2971 32.631 55.6014 33.3333 53.8333 33.3333Z" stroke="#3D3D3D" stroke-width="4" stroke-linecap="round" stroke-linejoin="round"/>
</svg>
