<svg xmlns="http://www.w3.org/2000/svg" width="81" height="81" viewBox="0 0 81 81" fill="none">
  <path d="M68 13H13C11.6739 13 10.4021 13.5268 9.46447 14.4645C8.52678 15.4021 8 16.6739 8 18V63C8 64.3261 8.52678 65.5979 9.46447 66.5355C10.4021 67.4732 11.6739 68 13 68H68C69.3261 68 70.5979 67.4732 71.5355 66.5355C72.4732 65.5979 73 64.3261 73 63V18C73 16.6739 72.4732 15.4021 71.5355 14.4645C70.5979 13.5268 69.3261 13 68 13ZM68 18V50.1094L59.8531 41.9656C59.3888 41.5012 58.8376 41.1328 58.2309 40.8815C57.6242 40.6301 56.9739 40.5008 56.3172 40.5008C55.6605 40.5008 55.0102 40.6301 54.4035 40.8815C53.7968 41.1328 53.2456 41.5012 52.7812 41.9656L46.5312 48.2156L32.7812 34.4656C31.8437 33.5287 30.5724 33.0023 29.2469 33.0023C27.9214 33.0023 26.6501 33.5287 25.7125 34.4656L13 47.1781V18H68ZM13 54.25L29.25 38L54.25 63H13V54.25ZM68 63H61.3219L50.0719 51.75L56.3219 45.5L68 57.1813V63ZM45.5 31.75C45.5 31.0083 45.7199 30.2833 46.132 29.6666C46.544 29.0499 47.1297 28.5693 47.8149 28.2855C48.5002 28.0016 49.2542 27.9274 49.9816 28.0721C50.709 28.2167 51.3772 28.5739 51.9016 29.0983C52.4261 29.6228 52.7832 30.291 52.9279 31.0184C53.0726 31.7458 52.9984 32.4998 52.7145 33.1851C52.4307 33.8703 51.9501 34.456 51.3334 34.868C50.7167 35.2801 49.9917 35.5 49.25 35.5C48.2554 35.5 47.3016 35.1049 46.5984 34.4017C45.8951 33.6984 45.5 32.7446 45.5 31.75Z" fill="#3D3D3D"/>
</svg>