<svg width="21" height="20" viewBox="0 0 21 20" fill="none" xmlns="http://www.w3.org/2000/svg">
<path d="M15.5 14.375H16.4375C16.8515 14.3738 17.2482 14.2087 17.541 13.916C17.8337 13.6232 17.9988 13.2265 18 12.8125V6.5625C17.9988 6.14848 17.8337 5.75177 17.541 5.45901C17.2482 5.16625 16.8515 5.00124 16.4375 5H4.5625C4.14848 5.00124 3.75177 5.16625 3.45901 5.45901C3.16625 5.75177 3.00124 6.14848 3 6.5625V12.8125C3.00124 13.2265 3.16625 13.6232 3.45901 13.916C3.75177 14.2087 4.14848 14.3738 4.5625 14.375H5.5" stroke="currentColor" stroke-width="1.5" stroke-linejoin="round"/>
<path d="M14.55 9.375H6.45C5.92533 9.375 5.5 9.80033 5.5 10.325V16.55C5.5 17.0747 5.92533 17.5 6.45 17.5H14.55C15.0747 17.5 15.5 17.0747 15.5 16.55V10.325C15.5 9.80033 15.0747 9.375 14.55 9.375Z" stroke="currentColor" stroke-width="1.5" stroke-linejoin="round"/>
<path d="M15.5 5V4.0625C15.4988 3.64848 15.3337 3.25177 15.041 2.95901C14.7482 2.66625 14.3515 2.50124 13.9375 2.5H7.0625C6.64848 2.50124 6.25177 2.66625 5.95901 2.95901C5.66625 3.25177 5.50124 3.64848 5.5 4.0625V5" stroke="currentColor" stroke-width="1.5" stroke-linejoin="round"/>
<path d="M16 7.1875C16 7.29105 15.9161 7.375 15.8125 7.375C15.7089 7.375 15.625 7.29105 15.625 7.1875C15.625 7.08395 15.7089 7 15.8125 7C15.9161 7 16 7.08395 16 7.1875Z" stroke="currentColor" stroke-width="1.5"/>
</svg>
