<svg width="29" height="31" viewBox="0 0 29 31" fill="none" xmlns="http://www.w3.org/2000/svg">
<g id="receipt-text">
<path id="Vector" d="M27.6429 6.92857V10.2129C27.6429 12.3571 26.2857 13.7143 24.1414 13.7143H19.5V4.22786C19.5 2.72143 20.735 1.5 22.2414 1.5C23.7207 1.51357 25.0779 2.11071 26.055 3.08786C27.0321 4.07857 27.6429 5.43571 27.6429 6.92857Z" stroke="currentColor" stroke-width="2"/>
<g id="Exclude">
<path fill-rule="evenodd" clip-rule="evenodd" d="M0.5 8.42336V27.8088C0.5 28.958 1.77572 29.6088 2.67144 28.9165L4.99214 27.1441C5.535 26.7287 6.29501 26.7841 6.78358 27.2826L9.03642 29.595C9.56571 30.135 10.4343 30.135 10.9636 29.595L13.2436 27.2687C13.7186 26.7841 14.4786 26.7287 15.0079 27.1441L17.3286 28.9165C18.2243 29.595 19.5 28.9442 19.5 27.8088V4.26934C19.5 2.7462 20.7214 1.5 22.2143 1.5H7.28572H5.92857C1.85714 1.5 0.5 3.97856 0.5 7.03869V8.42336ZM5.92857 12.6965H14.0714C14.6279 12.6965 15.0893 12.0812 15.0893 11.3393C15.0893 10.5974 14.6279 9.98218 14.0714 9.98218H5.92857C5.37215 9.98218 4.91072 10.5974 4.91072 11.3393C4.91072 12.0812 5.37215 12.6965 5.92857 12.6965ZM13.0536 18.1247H6.94641C6.38998 18.1247 5.92855 17.5095 5.92855 16.7676C5.92855 16.0257 6.38998 15.4104 6.94641 15.4104H13.0536C13.61 15.4104 14.0714 16.0257 14.0714 16.7676C14.0714 17.5095 13.61 18.1247 13.0536 18.1247Z" fill="currentColor"/>
<path d="M2.67144 28.9165L2.36795 28.5191L2.36566 28.5209L2.67144 28.9165ZM4.99214 27.1441L5.29562 27.5415L5.29599 27.5412L4.99214 27.1441ZM6.78358 27.2826L7.14172 26.9337L7.14066 26.9326L6.78358 27.2826ZM9.03642 29.595L8.67828 29.9439L8.67933 29.945L9.03642 29.595ZM10.9636 29.595L11.3207 29.945H11.3207L10.9636 29.595ZM13.2436 27.2687L12.8865 26.9187L12.8865 26.9188L13.2436 27.2687ZM15.0079 27.1441L14.6991 27.5375L14.7044 27.5415L15.0079 27.1441ZM17.3286 28.9165L17.0251 29.3139L17.0267 29.3151L17.3286 28.9165ZM1 27.8088V8.42336H0V27.8088H1ZM2.36566 28.5209C1.81688 28.9451 1 28.566 1 27.8088H0C0 29.3501 1.73456 30.2726 2.97721 29.3121L2.36566 28.5209ZM4.68866 26.7467L2.36796 28.5191L2.97492 29.3139L5.29562 27.5415L4.68866 26.7467ZM7.14066 26.9326C6.47823 26.2567 5.43504 26.1756 4.68829 26.747L5.29599 27.5412C5.63495 27.2818 6.11178 27.3115 6.42649 27.6326L7.14066 26.9326ZM9.39456 29.2461L7.14171 26.9337L6.42544 27.6315L8.67828 29.9439L9.39456 29.2461ZM10.6065 29.245C10.2733 29.585 9.72675 29.585 9.39351 29.245L8.67933 29.945C9.40466 30.685 10.5953 30.685 11.3207 29.945L10.6065 29.245ZM12.8865 26.9188L10.6065 29.245L11.3207 29.945L13.6007 27.6187L12.8865 26.9188ZM15.3166 26.7508C14.5824 26.1746 13.536 26.256 12.8865 26.9187L13.6007 27.6187C13.9011 27.3122 14.3747 27.2828 14.6992 27.5374L15.3166 26.7508ZM17.632 28.5191L15.3113 26.7467L14.7044 27.5415L17.0251 29.3139L17.632 28.5191ZM19 27.8088C19 28.5468 18.1844 28.9375 17.6305 28.5179L17.0267 29.3151C18.2641 30.2524 20 29.3416 20 27.8088H19ZM19 4.26934V27.8088H20V4.26934H19ZM22.2143 1C20.4359 1 19 2.47957 19 4.26934H20C20 3.01283 21.007 2 22.2143 2V1ZM7.28572 2H22.2143V1H7.28572V2ZM5.92857 2H7.28572V1H5.92857V2ZM1 7.03869C1 5.57183 1.32666 4.32206 2.06915 3.44482C2.7985 2.5831 3.99846 2 5.92857 2V1C3.78726 1 2.27293 1.65618 1.30585 2.79877C0.351909 3.92585 0 5.44542 0 7.03869H1ZM1 8.42336V7.03869H0V8.42336H1ZM14.0714 12.1965H5.92857V13.1965H14.0714V12.1965ZM14.5893 11.3393C14.5893 11.6103 14.5043 11.8424 14.389 11.9961C14.2729 12.151 14.1539 12.1965 14.0714 12.1965V13.1965C14.5454 13.1965 14.9354 12.9343 15.189 12.5961C15.4436 12.2567 15.5893 11.8103 15.5893 11.3393H14.5893ZM14.0714 10.4822C14.1539 10.4822 14.2729 10.5276 14.389 10.6825C14.5043 10.8362 14.5893 11.0684 14.5893 11.3393H15.5893C15.5893 10.8684 15.4436 10.4219 15.189 10.0825C14.9354 9.74433 14.5454 9.48218 14.0714 9.48218V10.4822ZM5.92857 10.4822H14.0714V9.48218H5.92857V10.4822ZM5.41072 11.3393C5.41072 11.0684 5.49572 10.8362 5.61098 10.6825C5.72716 10.5276 5.84612 10.4822 5.92857 10.4822V9.48218C5.4546 9.48218 5.06464 9.74433 4.81098 10.0825C4.55643 10.4219 4.41072 10.8684 4.41072 11.3393H5.41072ZM5.92857 12.1965C5.84612 12.1965 5.72716 12.151 5.61098 11.9961C5.49572 11.8424 5.41072 11.6103 5.41072 11.3393H4.41072C4.41072 11.8103 4.55643 12.2567 4.81099 12.5961C5.06464 12.9343 5.4546 13.1965 5.92857 13.1965V12.1965ZM6.94641 18.6247H13.0536V17.6247H6.94641V18.6247ZM5.42855 16.7676C5.42855 17.2386 5.57426 17.685 5.82882 18.0244C6.08247 18.3626 6.47243 18.6247 6.94641 18.6247V17.6247C6.86396 17.6247 6.74499 17.5793 6.62882 17.4244C6.51356 17.2707 6.42855 17.0385 6.42855 16.7676H5.42855ZM6.94641 14.9104C6.47243 14.9104 6.08247 15.1726 5.82882 15.5108C5.57426 15.8502 5.42855 16.2966 5.42855 16.7676H6.42855C6.42855 16.4967 6.51356 16.2645 6.62882 16.1108C6.74499 15.9559 6.86396 15.9104 6.94641 15.9104V14.9104ZM13.0536 14.9104H6.94641V15.9104H13.0536V14.9104ZM14.5714 16.7676C14.5714 16.2966 14.4257 15.8502 14.1711 15.5108C13.9175 15.1726 13.5275 14.9104 13.0536 14.9104V15.9104C13.136 15.9104 13.255 15.9559 13.3711 16.1108C13.4864 16.2645 13.5714 16.4967 13.5714 16.7676H14.5714ZM13.0536 18.6247C13.5275 18.6247 13.9175 18.3626 14.1711 18.0244C14.4257 17.685 14.5714 17.2386 14.5714 16.7676H13.5714C13.5714 17.0385 13.4864 17.2707 13.3711 17.4244C13.255 17.5793 13.136 17.6247 13.0536 17.6247V18.6247Z" fill="currentColor"/>
</g>
</g>
</svg>
