<svg width="30" height="31" viewBox="0 0 30 31" fill="none" xmlns="http://www.w3.org/2000/svg">
<g id="vuesax/linear/receipt-text">
<path id="Vector" d="M28.5424 6.90849V10.1806C28.5424 12.317 27.1903 13.6691 25.0539 13.6691H20.4297V4.21777C20.4297 2.71691 21.6601 1.5 23.161 1.5C24.6348 1.51352 25.9869 2.10846 26.9605 3.08198C27.934 4.06903 28.5424 5.42116 28.5424 6.90849Z" stroke="currentColor" stroke-width="2" stroke-miterlimit="10" stroke-linecap="round" stroke-linejoin="round"/>
<path id="Vector_2" d="M1.5 8.26061V27.1903C1.5 28.3126 2.77096 28.9481 3.66336 28.272L5.97552 26.5413C6.51637 26.1357 7.27357 26.1898 7.76033 26.6765L10.0048 28.9346C10.5321 29.4619 11.3976 29.4619 11.9249 28.9346L14.1965 26.663C14.6697 26.1898 15.4269 26.1357 15.9542 26.5413L18.2664 28.272C19.1588 28.9346 20.4297 28.2991 20.4297 27.1903V4.20425C20.4297 2.71691 21.6466 1.5 23.134 1.5H8.26061H6.90849C2.85212 1.5 1.5 3.9203 1.5 6.90849V8.26061Z" stroke="currentColor" stroke-width="2" stroke-miterlimit="10" stroke-linecap="round" stroke-linejoin="round"/>
<path id="Vector_3" d="M6.90845 10.9648H15.0212" stroke="currentColor" stroke-width="2" stroke-linecap="round" stroke-linejoin="round"/>
<path id="Vector_4" d="M7.92261 16.3735H14.0072" stroke="currentColor" stroke-width="2" stroke-linecap="round" stroke-linejoin="round"/>
</g>
</svg>
