<svg width="180" height="180" viewBox="0 0 180 180" fill="none" xmlns="http://www.w3.org/2000/svg">
<rect width="180" height="180" rx="90" fill="#179139"/>
<path d="M121.769 74.2692L81.7687 114.269C81.5365 114.502 81.2608 114.686 80.9573 114.812C80.6538 114.938 80.3285 115.002 79.9999 115.002C79.6714 115.002 79.3461 114.938 79.0426 114.812C78.7391 114.686 78.4634 114.502 78.2312 114.269L60.7312 96.7692C60.2621 96.3001 59.9985 95.6638 59.9985 95.0004C59.9985 94.337 60.2621 93.7008 60.7312 93.2317C61.2003 92.7626 61.8365 92.499 62.4999 92.499C63.1633 92.499 63.7996 92.7626 64.2687 93.2317L79.9999 108.966L118.231 70.7317C118.7 70.2626 119.337 69.999 120 69.999C120.663 69.999 121.3 70.2626 121.769 70.7317C122.238 71.2008 122.501 71.837 122.501 72.5004C122.501 73.1638 122.238 73.8001 121.769 74.2692Z" fill="#FBFBFB"/>
</svg>
