<svg width="20" height="20" viewBox="0 0 20 20" fill="none" xmlns="http://www.w3.org/2000/svg">
<path d="M9.66016 1.3125C9.58984 1.34766 9.49609 1.43359 9.45312 1.50391C9.38281 1.61719 9.375 1.69922 9.375 2.39062V3.15234L9.04688 3.26172C7.78125 3.67188 6.875 4.87109 6.875 6.12891C6.875 6.52344 6.94531 6.69141 7.15234 6.80469C7.27734 6.87109 7.44531 6.875 10 6.875C12.5547 6.875 12.7227 6.87109 12.8477 6.80469C13.0547 6.69141 13.125 6.52344 13.125 6.12891C13.125 4.87109 12.2188 3.67188 10.9531 3.26172L10.625 3.15234V2.40625C10.625 1.5625 10.5977 1.45312 10.3477 1.32031C10.1836 1.23047 9.83203 1.22656 9.66016 1.3125ZM10.6211 4.52734C11.0586 4.69141 11.4297 5.01562 11.625 5.39844C11.6758 5.5 11.7188 5.59375 11.7188 5.60547C11.7188 5.61719 10.9258 5.625 9.96094 5.625H8.20312L8.31641 5.39844C8.52734 4.98438 8.83984 4.69531 9.26172 4.52734C9.66406 4.37109 10.207 4.36719 10.6211 4.52734Z" fill="currentColor"/>
<path d="M1.69922 6.86724C1.47266 6.94146 1.28906 7.20708 1.28906 7.46099C1.28906 7.53911 1.35156 7.84771 1.42578 8.14458C1.58984 8.79692 1.73438 9.65239 1.82031 10.4688C1.875 10.9649 1.89062 11.7344 1.91016 14.6954C1.93359 18.2696 1.93359 18.3165 2.01562 18.4219C2.14844 18.6016 2.28906 18.6836 2.49609 18.7032C2.76562 18.7266 3.01953 18.6055 3.125 18.3946C3.19922 18.254 3.20312 18.1602 3.20312 16.9141V15.586H5.05859H6.91016L6.92188 16.9493C6.93359 18.2579 6.9375 18.3204 7.01562 18.4219C7.14844 18.6016 7.28906 18.6836 7.49609 18.7032C7.76562 18.7266 8.01953 18.6055 8.125 18.3946C8.19922 18.25 8.20312 18.1563 8.20312 15.9024C8.20312 13.5938 8.20312 13.5547 8.11719 13.3321C8.00391 13.0235 7.67969 12.6993 7.37109 12.586C7.15234 12.5 7.10156 12.5 5.14062 12.5H3.13672L3.11328 11.5704C3.07422 10.0586 2.86719 8.53521 2.55078 7.42583C2.42969 7.00396 2.05078 6.75396 1.69922 6.86724ZM6.875 14.0625V14.375H5H3.125V14.0625V13.75H5H6.875V14.0625Z" fill="currentColor"/>
<path d="M17.8242 6.91406C17.6328 7.02734 17.5781 7.14844 17.4414 7.70703C17.1328 8.96484 16.9141 10.8203 16.9141 12.1953V12.5H14.8945H12.8711L12.6719 12.5938C12.3906 12.7227 12.1719 12.9375 12.043 13.1953L11.9336 13.418V15.8984V18.3789L12.0234 18.5078C12.1523 18.6836 12.3008 18.75 12.5703 18.75C12.8438 18.75 13.0273 18.6484 13.1328 18.4375C13.1953 18.3164 13.2031 18.1602 13.2031 16.9609V15.625H15.0586H16.9102L16.9219 17C16.9336 18.3711 16.9336 18.3789 17.0234 18.5078C17.1523 18.6836 17.3008 18.75 17.5703 18.75C17.8438 18.75 18.0273 18.6484 18.1328 18.4375C18.1992 18.3125 18.2031 18.0781 18.2031 15.2734C18.2031 13.6094 18.2227 11.9102 18.2422 11.5039C18.3125 10.1602 18.4531 9.14062 18.7109 8.14844C18.7734 7.89453 18.8281 7.65234 18.8281 7.60547C18.8281 7.33594 18.6289 7.01562 18.3945 6.89062C18.2383 6.8125 17.9727 6.82031 17.8242 6.91406ZM16.875 14.0625V14.375H15H13.125V14.0625V13.75H15H16.875V14.0625Z" fill="currentColor"/>
<path d="M4.66016 10.0625C4.46875 10.1562 4.375 10.3359 4.375 10.6094C4.375 10.8906 4.46484 11.0781 4.65234 11.1797C4.77734 11.2461 4.92969 11.25 7.07812 11.25H9.375V14.7969C9.375 18.1562 9.37891 18.3477 9.44531 18.4727C9.54297 18.6562 9.73438 18.75 10 18.75C10.2656 18.75 10.457 18.6562 10.5547 18.4727C10.6211 18.3477 10.625 18.1562 10.625 14.7969V11.25H12.9219C15.0703 11.25 15.2227 11.2461 15.3477 11.1797C15.5312 11.082 15.625 10.8906 15.625 10.625C15.625 10.3594 15.5312 10.168 15.3477 10.0703C15.2227 10.0039 14.9766 10 10 10C5.30078 10 4.77344 10.0078 4.66016 10.0625Z" fill="currentColor"/>
</svg>
