<svg xmlns="http://www.w3.org/2000/svg" width="20" height="20" viewBox="0 0 20 20" fill="none">
  <path d="M10 10C10.9946 10 11.9484 9.60491 12.6517 8.90165C13.3549 8.19839 13.75 7.24456 13.75 6.25C13.75 5.25544 13.3549 4.30161 12.6517 3.59835C11.9484 2.89509 10.9946 2.5 10 2.5C9.00544 2.5 8.05161 2.89509 7.34835 3.59835C6.64509 4.30161 6.25 5.25544 6.25 6.25C6.25 7.24456 6.64509 8.19839 7.34835 8.90165C8.05161 9.60491 9.00544 10 10 10ZM10 11.25C8.67392 11.25 7.40215 10.7232 6.46447 9.78553C5.52678 8.84785 5 7.57608 5 6.25C5 4.92392 5.52678 3.65215 6.46447 2.71447C7.40215 1.77678 8.67392 1.25 10 1.25C11.3261 1.25 12.5979 1.77678 13.5355 2.71447C14.4732 3.65215 15 4.92392 15 6.25C15 7.57608 14.4732 8.84785 13.5355 9.78553C12.5979 10.7232 11.3261 11.25 10 11.25ZM16.25 17.5V15.625C16.25 15.1277 16.0525 14.6508 15.7008 14.2992C15.3492 13.9475 14.8723 13.75 14.375 13.75H5.625C5.12772 13.75 4.65081 13.9475 4.29917 14.2992C3.94754 14.6508 3.75 15.1277 3.75 15.625V17.5C3.75 17.6658 3.68415 17.8247 3.56694 17.9419C3.44973 18.0592 3.29076 18.125 3.125 18.125C2.95924 18.125 2.80027 18.0592 2.68306 17.9419C2.56585 17.8247 2.5 17.6658 2.5 17.5V15.625C2.5 14.7962 2.82924 14.0013 3.41529 13.4153C4.00134 12.8292 4.7962 12.5 5.625 12.5H14.375C15.2038 12.5 15.9987 12.8292 16.5847 13.4153C17.1708 14.0013 17.5 14.7962 17.5 15.625V17.5C17.5 17.6658 17.4342 17.8247 17.3169 17.9419C17.1997 18.0592 17.0408 18.125 16.875 18.125C16.7092 18.125 16.5503 18.0592 16.4331 17.9419C16.3158 17.8247 16.25 17.6658 16.25 17.5Z" fill="currentColor"/>
</svg>