<svg xmlns="http://www.w3.org/2000/svg" width="18" height="18" viewBox="0 0 18 18" fill="none">
  <path d="M14.4604 13.6648C14.5127 13.7171 14.5541 13.7792 14.5824 13.8474C14.6107 13.9157 14.6253 13.9889 14.6253 14.0628C14.6253 14.1367 14.6107 14.2099 14.5824 14.2782C14.5541 14.3465 14.5127 14.4085 14.4604 14.4608C14.4082 14.513 14.3461 14.5545 14.2778 14.5828C14.2095 14.6111 14.1364 14.6256 14.0624 14.6256C13.9885 14.6256 13.9154 14.6111 13.8471 14.5828C13.7788 14.5545 13.7167 14.513 13.6645 14.4608L8.99995 9.79555L4.33542 14.4608C4.22987 14.5663 4.08671 14.6256 3.93745 14.6256C3.78818 14.6256 3.64503 14.5663 3.53948 14.4608C3.43393 14.3552 3.37463 14.2121 3.37463 14.0628C3.37463 13.9135 3.43393 13.7704 3.53948 13.6648L8.20471 9.00031L3.53948 4.33578C3.43393 4.23023 3.37463 4.08708 3.37463 3.93781C3.37463 3.78855 3.43393 3.64539 3.53948 3.53984C3.64503 3.4343 3.78818 3.375 3.93745 3.375C4.08671 3.375 4.22987 3.4343 4.33542 3.53984L8.99995 8.20508L13.6645 3.53984C13.77 3.4343 13.9132 3.375 14.0624 3.375C14.2117 3.375 14.3549 3.4343 14.4604 3.53984C14.566 3.64539 14.6253 3.78855 14.6253 3.93781C14.6253 4.08708 14.566 4.23023 14.4604 4.33578L9.79518 9.00031L14.4604 13.6648Z" fill="currentColor"/>
</svg>