<svg width="80" height="80" viewBox="0 0 80 80" fill="none" xmlns="http://www.w3.org/2000/svg">
<mask id="mask0_286_11908" style="mask-type:luminance" maskUnits="userSpaceOnUse" x="24" y="30" width="25" height="13">
<path d="M24.7834 30.2156H48.6588V42.3532H24.7834V30.2156Z" fill="white"/>
</mask>
<g mask="url(#mask0_286_11908)">
<path d="M25.7986 31.2776H27.8281V41.4239H25.7986V31.2776ZM30.2975 32.2928C30.5975 32.3766 30.8499 32.5061 31.0442 32.6737C31.0889 32.7137 31.2261 32.8546 31.488 33.1184L31.5889 33.2203C32.0022 33.6384 32.0222 33.6565 32.0613 33.6908C32.3918 33.9756 32.8022 34.1822 33.2822 34.306L38.7858 34.3213C39.1706 34.3213 39.4963 34.786 39.4963 35.3365C39.4963 35.886 39.1706 36.3507 38.7858 36.3507H35.945C35.664 36.3507 35.4374 36.5783 35.4374 36.8583C35.4374 37.1383 35.664 37.3659 35.945 37.3659H40.0029L46.1503 35.4612L46.2046 35.4403C46.717 35.2127 47.3169 35.4431 47.5455 35.9545C47.655 36.2021 47.6626 36.4774 47.5655 36.7307C47.4684 36.9831 47.2789 37.184 47.0217 37.2983L40.3972 40.4096H28.8424V32.2928H30.2975ZM25.3425 42.4391H28.2843C28.5919 42.4391 28.8424 42.1886 28.8424 41.881V41.4239H40.6238L47.4436 38.2202C47.9388 38.0011 48.3188 37.6002 48.5121 37.0935C48.7064 36.5878 48.6921 36.0364 48.4712 35.5412C48.0207 34.5289 46.836 34.0679 45.8208 34.5013L40.3296 36.224C40.4419 35.9545 40.5105 35.6564 40.5105 35.3365C40.5105 34.2175 39.7372 33.307 38.7858 33.307H33.4746C33.1746 33.2222 32.9222 33.0937 32.7251 32.9232C32.6898 32.8927 32.6736 32.8746 32.3099 32.507L32.2099 32.4051C31.9051 32.0975 31.7508 31.9432 31.7108 31.909C31.3813 31.6233 30.9699 31.4176 30.4899 31.2937L28.8424 31.2814V30.8204C28.8424 30.5128 28.5919 30.2633 28.2843 30.2633H25.3425C25.0339 30.2633 24.7834 30.5128 24.7834 30.8204V41.881C24.7834 42.1886 25.0339 42.4391 25.3425 42.4391Z" fill="#862C2C"/>
</g>
<mask id="mask1_286_11908" style="mask-type:luminance" maskUnits="userSpaceOnUse" x="24" y="12" width="32" height="18">
<path d="M24.7834 12H55.1367V29.9718H24.7834V12Z" fill="white"/>
</mask>
<g mask="url(#mask1_286_11908)">
<path d="M54.2081 23.1606H52.1787V13.0143H54.2081V23.1606ZM50.4806 22.1777C49.9654 22.3692 49.6959 22.7396 49.4588 23.0682C49.3931 23.1587 49.3254 23.2529 49.2483 23.3482C49.2426 23.3548 48.6674 24.0472 47.6541 24.5053C47.2246 24.7005 46.5332 24.8872 45.5837 24.7624V21.9777C47.5922 21.0883 48.3921 19.3169 48.595 18.7721C48.6931 18.5093 48.5607 18.2169 48.2979 18.1198C48.036 18.0226 47.7426 18.155 47.6455 18.4169C47.5198 18.7531 46.7979 20.4635 44.9008 21.1625C42.8095 21.932 40.9848 20.8321 40.7829 20.7035C40.7696 20.6949 40.7543 20.694 40.741 20.6873C40.7096 20.6711 40.6781 20.6597 40.6448 20.6502C40.6143 20.6416 40.5857 20.6349 40.5543 20.6321C40.52 20.6292 40.4877 20.6311 40.4534 20.6349C40.4229 20.6387 40.3943 20.6435 40.3648 20.6521C40.3324 20.6616 40.3039 20.6759 40.2734 20.6921C40.2439 20.7073 40.2172 20.7245 40.1915 20.7464C40.1791 20.7568 40.1639 20.7606 40.1524 20.7721L37.1592 23.7548C36.7754 24.1377 36.1069 24.1386 35.724 23.7548C35.3288 23.3596 35.3288 22.7158 35.724 22.3196L39.5972 18.4474C39.7953 18.2493 39.7953 17.9274 39.5972 17.7293C39.4658 17.5979 39.282 17.5627 39.1134 17.6055C39.0725 17.595 39.0334 17.5798 38.9887 17.5798H34.9298L39.6648 14.0285H51.1644V22.0663C50.9244 22.0625 50.6959 22.0977 50.4806 22.1777ZM44.5694 28.7413H43.7514C43.8818 28.3385 44.1818 28.0099 44.5694 27.8452V28.7413ZM25.7986 28.7413V27.7947C26.0177 27.8642 26.2186 27.9852 26.3862 28.1528C26.5539 28.3204 26.6748 28.5213 26.7443 28.7413H25.7986ZM25.7986 18.595H26.6939C26.5301 18.9817 26.2015 19.2826 25.7986 19.4121V18.595ZM35.0059 24.4719C35.3897 24.8557 35.8992 25.0672 36.4411 25.0672C36.9764 25.0672 37.4773 24.8595 37.8592 24.4872C37.5001 25.7681 36.324 26.7119 34.9298 26.7119C33.2517 26.7119 31.8861 25.3462 31.8861 23.6682C31.8861 21.9892 33.2517 20.6245 34.9298 20.6245C35.2412 20.6245 35.5469 20.6759 35.8402 20.7683L35.0059 21.6025C34.2155 22.3939 34.2155 23.6815 35.0059 24.4719ZM38.0144 18.595L36.624 19.9854C36.0945 19.7416 35.5183 19.6093 34.9298 19.6093C32.6917 19.6093 30.8718 21.4301 30.8718 23.6682C30.8718 25.9062 32.6917 27.7261 34.9298 27.7261C37.1678 27.7261 38.9887 25.9062 38.9887 23.6682C38.9887 23.5729 38.9753 23.4786 38.9687 23.3844L40.5953 21.7625C41.1295 22.0406 42.1276 22.453 43.3618 22.453C43.7437 22.453 44.1494 22.4073 44.5694 22.312V26.7814C43.619 27.0052 42.8857 27.7804 42.7095 28.7413H27.7872C27.6986 28.249 27.4653 27.7975 27.1034 27.4356C26.7415 27.0738 26.2929 26.8395 25.7986 26.7519V20.453C26.7596 20.2759 27.5338 19.5445 27.7576 18.595H38.0144ZM54.6643 12H51.7225C51.4149 12 51.1644 12.2495 51.1644 12.5571V13.0143H39.3267L33.2393 17.5798H25.3415C25.0339 17.5798 24.7834 17.8303 24.7834 18.1379V29.1984C24.7834 29.5061 25.0339 29.7556 25.3415 29.7556H45.0256C45.3332 29.7556 45.5837 29.5061 45.5837 29.1984V25.7833C45.7932 25.8062 45.9941 25.8176 46.1836 25.8176C47.0065 25.8176 47.6398 25.6262 48.0731 25.43C49.3159 24.8681 50.0083 24.0224 50.0368 23.9872C50.1254 23.8767 50.2054 23.7672 50.2806 23.6634C50.4949 23.3672 50.6168 23.2091 50.834 23.1291C50.933 23.092 51.0435 23.0758 51.1644 23.0787V23.6177C51.1644 23.9253 51.4149 24.1748 51.7225 24.1748H54.6643C54.9729 24.1748 55.2224 23.9253 55.2224 23.6177V12.5571C55.2224 12.2495 54.9729 12 54.6643 12Z" fill="#862C2C"/>
</g>
<path d="M27.83 24.1807H28.3376L28.8471 24.1779L28.8452 23.1608L27.8281 23.1636L27.83 24.1807Z" fill="#862C2C"/>
<path d="M42.0354 24.1807L42.5449 24.1779L42.542 23.1608L41.5249 23.1636L41.5278 24.1807H42.0354Z" fill="#862C2C"/>
<path d="M16.1427 58.7918C18.0959 58.7918 19.7825 57.7071 20.6501 56.1043L19.2483 55.3529C18.6635 56.4548 17.495 57.1729 16.1427 57.1729C14.1723 57.1729 12.619 55.6367 12.619 53.6492C12.619 51.6626 14.1723 50.1264 16.1427 50.1264C17.495 50.1264 18.6635 50.8445 19.2483 51.9464L20.6501 51.195C19.7825 49.5922 18.0959 48.5074 16.1427 48.5074C13.3037 48.5074 11 50.8112 11 53.6492C11 56.4881 13.3037 58.7918 16.1427 58.7918Z" fill="#862C2C"/>
<path d="M29.2219 58.6586H30.9914L27.3687 48.6409H25.5487L21.925 58.6586H23.6955L24.4126 56.5377H28.5039L29.2219 58.6586ZM24.8973 55.1025L26.4668 50.4275L28.0363 55.1025H24.8973Z" fill="#862C2C"/>
<path d="M37.9431 48.6409H32.9175V50.1599H36.3069V55.9701C36.3069 56.7549 35.7898 57.2891 35.0879 57.2891C34.4537 57.2891 33.9699 56.8387 33.9032 56.1539L32.2661 56.5882C32.4499 57.9577 33.4689 58.7919 35.0879 58.7919C36.8745 58.7919 37.9431 57.7901 37.9431 56.1711V48.6409Z" fill="#862C2C"/>
<path d="M46.6821 50.1265V48.6409H40.9385V58.6586H46.6821V57.1729H42.5746V54.4007H46.1307V52.8988H42.5746V50.1265H46.6821Z" fill="#862C2C"/>
<path d="M54.1847 54.3007C55.437 54.034 56.3551 52.9321 56.3551 51.5798C56.3551 49.9427 55.0866 48.6409 53.4666 48.6409H49.543V58.6586H51.1791V54.4511H52.5648L55.2199 58.6586H57.056L54.1847 54.3007ZM51.1791 53.0321V50.1599H53.2666C54.118 50.1599 54.7523 50.7446 54.7523 51.596C54.7523 52.4474 54.118 53.0321 53.2666 53.0321H51.1791Z" fill="#862C2C"/>
<path d="M63.8583 58.7918C66.6962 58.7918 69 56.4881 69 53.6492C69 50.8112 66.6962 48.5074 63.8583 48.5074C61.0193 48.5074 58.7156 50.8112 58.7156 53.6492C58.7156 56.4881 61.0193 58.7918 63.8583 58.7918ZM63.8583 57.1729C61.8878 57.1729 60.3346 55.6367 60.3346 53.6492C60.3346 51.6626 61.8878 50.1264 63.8583 50.1264C65.8449 50.1264 67.381 51.6626 67.381 53.6492C67.381 55.6367 65.8449 57.1729 63.8583 57.1729Z" fill="#862C2C"/>
<path d="M24.6799 67.7209C25.3609 67.7209 25.9532 67.3476 26.2666 66.7972L25.9409 66.6134C25.698 67.0514 25.2247 67.3419 24.6799 67.3419C23.88 67.3419 23.2352 66.7019 23.2352 65.8972C23.2352 65.0915 23.88 64.4515 24.6799 64.4515C25.2247 64.4515 25.698 64.742 25.9409 65.1801L26.2666 64.9963C25.9532 64.4458 25.3609 64.0725 24.6799 64.0725C23.6733 64.0725 22.8562 64.8906 22.8562 65.8972C22.8562 66.9038 23.6733 67.7209 24.6799 67.7209Z" fill="#862C2C"/>
<path d="M31.5011 67.6732H31.9154L30.6307 64.12H30.2098L28.925 67.6732H29.3393L29.6298 66.8437H31.2107L31.5011 67.6732ZM29.7545 66.4828L30.4231 64.5705L31.0869 66.4828H29.7545Z" fill="#862C2C"/>
<path d="M35.705 67.7209C36.3088 67.7209 36.8002 67.3591 36.8002 66.7381C36.8002 65.5296 35.0707 65.8258 35.0707 64.9791C35.0707 64.6239 35.3612 64.4515 35.6926 64.4515C35.965 64.4515 36.1907 64.5649 36.3326 64.7658L36.6288 64.5173C36.4335 64.2687 36.0898 64.0725 35.6812 64.0725C35.1365 64.0725 34.6927 64.4287 34.6927 65.0087C34.6927 66.1515 36.4212 65.8677 36.4212 66.7496C36.4212 67.1286 36.1078 67.3419 35.7107 67.3419C35.3079 67.3419 35.0184 67.1229 34.8936 66.7972L34.5498 66.9981C34.7336 67.4362 35.1774 67.7209 35.705 67.7209Z" fill="#862C2C"/>
<path d="M42.2066 64.12V65.7076H40.2467V64.12H39.8677V67.6732H40.2467V66.0866H42.2066V67.6732H42.5857V64.12H42.2066Z" fill="#862C2C"/>
<path d="M45.9424 67.6732H46.3214V64.12H45.9424V67.6732Z" fill="#862C2C"/>
<path d="M51.645 64.4876V64.12H49.7031V67.6732H51.645V67.3056H50.0822V66.0799H51.444V65.7133H50.0822V64.4876H51.645Z" fill="#862C2C"/>
<path d="M56.3352 66.0504C56.8028 65.9856 57.1581 65.5952 57.1581 65.1152C57.1581 64.5581 56.7143 64.12 56.1695 64.12H54.8962V67.6732H55.2753V66.0685H55.9438L56.9514 67.6732H57.3828L56.3352 66.0504ZM55.2753 65.7076V64.499H56.1457C56.5009 64.499 56.779 64.7476 56.779 65.1028C56.779 65.4647 56.5067 65.7076 56.1457 65.7076H55.2753Z" fill="#862C2C"/>
</svg>
